<svg xmlns="http://www.w3.org/2000/svg" viewBox="0 0 180 180"><circle cx="90" cy="90" r="79" fill="#e9e3d4"/><g fill="none" stroke="#26231d" stroke-width="3" stroke-linejoin="round" stroke-linecap="round"><path d="M85 24c17 14 35 19 53 21v44c0 31-22 49-53 65-31-16-53-34-53-65V45c18-2 36-7 53-21z" fill="#fff8dd"/><path d="M85 38c13 10 26 14 39 17v33c0 24-15 37-39 51-24-14-39-27-39-51V55c13-3 26-7 39-17z" fill="#f1cd29"/><path d="m62 87 16 16 30-34" stroke-width="7"/></g><path d="M149 29h12m-6-6v12" stroke="#c6a426" stroke-width="2"/></svg>
