<svg xmlns="http://www.w3.org/2000/svg" width="800" height="260" viewBox="0 0 800 260" role="img" aria-label="Агафонов"><g fill="none" stroke="#F1CD29" stroke-width="12" stroke-linejoin="bevel"><path transform="translate(58 86)" d="M0 80 26 0H38L64 80M12 50H52"/><path transform="translate(144 86)" d="M0 80V0H56"/><path transform="translate(230 86)" d="M0 80 26 0H38L64 80M12 50H52"/><path transform="translate(316 86)" d="M32 -9V89M32 8H13L0 21V59L13 72H51L64 59V21L51 8Z"/><path transform="translate(402 86)" d="M14 0H50L64 14V66L50 80H14L0 66V14Z"/><path transform="translate(488 86)" d="M0 0V80M64 0V80M0 40H64"/><path transform="translate(574 86)" d="M14 0H50L64 14V66L50 80H14L0 66V14Z"/><path transform="translate(660 86)" d="M0 80V0H43L59 12V27L45 40H0M45 40L64 52V67L49 80H0"/></g><text x="400" y="214" text-anchor="middle" fill="#F1CD29" font-family="Arial,sans-serif" font-size="11" letter-spacing="6">ТОЧНОСТЬ В КАЖДОЙ ДЕТАЛИ</text></svg>
